<svg width="201" height="43" viewBox="0 0 201 43" xmlns="http://www.w3.org/2000/svg"><title>pedestal</title><path d="M4.8 42.184c-.528.528-1.152.792-1.872.792-.72 0-1.336-.264-1.848-.792s-.768-1.128-.768-1.8V12.496c0-.704.248-1.304.744-1.8s1.088-.744 1.776-.744 1.28.192 1.776.576c.496.384.792.848.888 1.392 2.016-1.312 4.192-1.968 6.528-1.968 3.2 0 5.936 1.184 8.208 3.552 2.272 2.368 3.408 5.2 3.408 8.496 0 3.296-1.136 6.104-3.408 8.424-2.272 2.32-5.008 3.48-8.208 3.48-2.464 0-4.608-.656-6.432-1.968v8.448c0 .672-.264 1.272-.792 1.8zm11.736-25.032c-1.248-1.312-2.768-1.968-4.56-1.968-1.792 0-3.304.664-4.536 1.992-1.232 1.328-1.848 2.984-1.848 4.968s.624 3.536 1.872 4.656c1.216 1.344 2.712 2.016 4.488 2.016 1.776 0 3.296-.672 4.56-2.016 1.264-1.344 1.896-2.936 1.896-4.776 0-1.84-.624-3.464-1.872-4.872zm37.056 4.176c0 .704-.232 1.272-.696 1.704-.464.432-1.08.648-1.848.648H35.784c.288 1.376.832 2.432 1.632 3.168 1.024 1.184 2.52 1.896 4.488 2.136 1.968.24 3.672-.152 5.112-1.176.48-.512 1.12-.768 1.92-.768.8 0 1.36.208 1.68.624.896.992.896 2.032 0 3.12-2.304 2.112-5.128 3.16-8.472 3.144-3.344-.016-6.144-1.192-8.4-3.528-2.256-2.336-3.4-5.152-3.432-8.448.032-3.296 1.176-6.12 3.432-8.472 2.256-2.352 4.984-3.528 8.184-3.528 3.2 0 5.896 1.048 8.088 3.144 2.192 2.096 3.384 4.76 3.576 7.992v.24zm-11.568-6.816c-1.856.096-3.344.672-4.464 1.728-1.12 1.056-1.792 2.176-2.016 3.36h13.584c-.288-1.12-1.064-2.208-2.328-3.264-1.264-1.056-2.856-1.664-4.776-1.824zM82.968 31.36c0 .704-.256 1.312-.768 1.824s-1.104.768-1.776.768c-.672 0-1.24-.2-1.704-.6-.464-.4-.76-.888-.888-1.464-2.016 1.376-4.192 2.064-6.528 2.064-3.232 0-5.984-1.176-8.256-3.528-2.272-2.352-3.408-5.168-3.408-8.448 0-3.28 1.136-6.104 3.408-8.472 2.272-2.368 5.024-3.552 8.256-3.552 2.368 0 4.512.672 6.432 2.016V2.944c0-.704.256-1.312.768-1.824s1.128-.768 1.848-.768c.72 0 1.336.256 1.848.768s.768 1.12.768 1.824V31.36zm-7.128-4.632c1.264-1.328 1.896-2.912 1.896-4.752 0-1.84-.624-3.432-1.872-4.776-1.248-1.344-2.768-2.016-4.56-2.016-1.792 0-3.312.672-4.56 2.016-1.248 1.344-1.872 2.936-1.872 4.776 0 1.84.632 3.424 1.896 4.752 1.264 1.328 2.776 1.992 4.536 1.992 1.76 0 3.272-.664 4.536-1.992zm38.664-5.4c0 .704-.232 1.272-.696 1.704-.464.432-1.08.648-1.848.648H96.696c.288 1.376.832 2.432 1.632 3.168 1.024 1.184 2.52 1.896 4.488 2.136 1.968.24 3.672-.152 5.112-1.176.48-.512 1.12-.768 1.92-.768.8 0 1.36.208 1.68.624.896.992.896 2.032 0 3.12-2.304 2.112-5.128 3.16-8.472 3.144-3.344-.016-6.144-1.192-8.4-3.528-2.256-2.336-3.4-5.152-3.432-8.448.032-3.296 1.176-6.12 3.432-8.472 2.256-2.352 4.984-3.528 8.184-3.528 3.2 0 5.896 1.048 8.088 3.144 2.192 2.096 3.384 4.76 3.576 7.992v.24zm-11.568-6.816c-1.856.096-3.344.672-4.464 1.728-1.12 1.056-1.792 2.176-2.016 3.36h13.584c-.288-1.12-1.064-2.208-2.328-3.264-1.264-1.056-2.856-1.664-4.776-1.824zm34.032-1.92c.576.384.936.92 1.08 1.608.144.688.04 1.336-.312 1.944-.384.576-.92.936-1.608 1.08-.688.144-1.336.008-1.944-.408-1.792-1.184-3.272-1.776-4.44-1.776-1.168 0-2.12.288-2.856.864-.512.352-.768.664-.768.936s.04.472.12.6c.08.128.248.272.504.432.704.48 1.872.864 3.504 1.152l.048.048h.048c1.696.32 3.248.8 4.656 1.44 1.408.64 2.448 1.52 3.12 2.64.672 1.12 1.008 2.224 1.008 3.312 0 2.24-1.008 4.096-3.024 5.568-1.856 1.28-3.936 1.92-6.24 1.92-2.976-.032-5.824-1.136-8.544-3.312-.512-.416-.808-.984-.888-1.704-.08-.72.104-1.336.552-1.848.416-.576.992-.896 1.728-.96.736-.064 1.36.128 1.872.576 1.728 1.44 3.488 2.144 5.28 2.112 1.216 0 2.304-.304 3.264-.912.576-.48.864-.888.864-1.224 0-.336-.048-.568-.144-.696-.064-.16-.272-.352-.624-.576-.768-.544-2.048-.992-3.84-1.344h-.048c-1.696-.32-3.176-.784-4.44-1.392-1.264-.608-2.28-1.488-3.048-2.64-.544-.896-.816-1.904-.816-3.024 0-2.08.944-3.84 2.832-5.28 1.728-1.184 3.704-1.776 5.928-1.776 2.224 0 4.616.88 7.176 2.64zm16.896-2.64c.736 0 1.368.256 1.896.768.528.512.792 1.128.792 1.848 0 .72-.264 1.344-.792 1.872s-1.16.792-1.896.792h-1.2v13.392c.736 0 1.36.264 1.872.792s.768 1.16.768 1.896-.256 1.36-.768 1.872-1.136.768-1.872.768c-1.472 0-2.728-.52-3.768-1.56-1.04-1.04-1.56-2.296-1.56-3.768V15.232h-1.392c-.736 0-1.36-.256-1.872-.768s-.768-1.136-.768-1.872c0-.736.256-1.36.768-1.872s1.136-.768 1.872-.768h1.392v-6.96c0-.736.264-1.36.792-1.872s1.16-.768 1.896-.768 1.36.256 1.872.768.768 1.136.768 1.872v6.96h1.2zm11.832 20.496c-2.192-2.336-3.288-5.16-3.288-8.472 0-3.312 1.096-6.144 3.288-8.496 2.192-2.352 4.904-3.528 8.136-3.528 2.272 0 4.4.704 6.384 2.112.16-.608.464-1.112.912-1.512.448-.4 1-.6 1.656-.6.656 0 1.232.256 1.728.768s.744 1.12.744 1.824v18.864c0 .704-.248 1.304-.744 1.8s-1.072.744-1.728.744c-.656 0-1.208-.192-1.656-.576-.448-.384-.752-.88-.912-1.488-1.952 1.376-4.08 2.064-6.384 2.064-3.232 0-5.944-1.168-8.136-3.504zm3.6-3.6c1.168 1.312 2.672 1.968 4.512 1.968 1.84 0 3.36-.656 4.56-1.968 1.2-1.312 1.8-2.928 1.8-4.848s-.608-3.552-1.824-4.896c-1.216-1.344-2.728-2.016-4.536-2.016-1.808 0-3.304.664-4.488 1.992-1.184 1.328-1.776 2.96-1.776 4.896s.584 3.56 1.752 4.872zM195 2.992c0-.736.256-1.36.768-1.872s1.136-.768 1.872-.768c.736 0 1.368.256 1.896.768.528.512.792 1.136.792 1.872v28.32c0 .736-.264 1.36-.792 1.872s-1.16.768-1.896.768-1.36-.256-1.872-.768-.768-1.136-.768-1.872V2.992z" fill="#FFF" fill-rule="evenodd"/></svg>