<?xml version="1.0" encoding="UTF-8" standalone="no"?>
<svg width="201px" height="43px" viewBox="0 0 201 43" version="1.1" xmlns="http://www.w3.org/2000/svg" xmlns:xlink="http://www.w3.org/1999/xlink" xmlns:sketch="http://www.bohemiancoding.com/sketch/ns">
    <!-- Generator: Sketch 3.3 (11970) - http://www.bohemiancoding.com/sketch -->
    <title>pedestal</title>
    <desc>Created with Sketch.</desc>
    <defs></defs>
    <g id="Page-1" stroke="none" stroke-width="1" fill="none" fill-rule="evenodd" sketch:type="MSPage">
        <path d="M4.8,42.184 C4.27199736,42.7120026 3.6480036,42.976 2.928,42.976 C2.2079964,42.976 1.59200256,42.7120026 1.08,42.184 C0.56799744,41.6559974 0.312,41.0560034 0.312,40.384 L0.312,12.496 C0.312,11.7919965 0.55999752,11.1920025 1.056,10.696 C1.55200248,10.1999975 2.14399656,9.952 2.832,9.952 C3.52000344,9.952 4.11199752,10.1439981 4.608,10.528 C5.10400248,10.9120019 5.39999952,11.3759973 5.496,11.92 C7.51201008,10.6079934 9.68798832,9.952 12.024,9.952 C15.224016,9.952 17.9599886,11.1359882 20.232,13.504 C22.5040114,15.8720118 23.64,18.7039835 23.64,22 C23.64,25.2960165 22.5040114,28.1039884 20.232,30.424 C17.9599886,32.7440116 15.224016,33.904 12.024,33.904 C9.55998768,33.904 7.41600912,33.2480066 5.592,31.936 L5.592,40.384 C5.592,41.0560034 5.32800264,41.6559974 4.8,42.184 L4.8,42.184 Z M16.536,17.152 C15.2879938,15.8399934 13.768009,15.184 11.976,15.184 C10.183991,15.184 8.67200616,15.8479934 7.44,17.176 C6.20799384,18.5040066 5.592,20.1599901 5.592,22.144 C5.592,24.1280099 6.21599376,25.6799944 7.464,26.8 C8.68000608,28.1440067 10.1759911,28.816 11.952,28.816 C13.7280089,28.816 15.2479937,28.1440067 16.512,26.8 C17.7760063,25.4559933 18.408,23.8640092 18.408,22.024 C18.408,20.1839908 17.7840062,18.560007 16.536,17.152 L16.536,17.152 Z M53.592,21.328 C53.592,22.0320035 53.3600023,22.5999978 52.896,23.032 C52.4319977,23.4640022 51.8160038,23.68 51.048,23.68 L35.784,23.68 C36.0720014,25.0560069 36.615996,26.1119963 37.416,26.848 C38.4400051,28.0320059 39.9359902,28.7439988 41.904,28.984 C43.8720098,29.2240012 45.5759928,28.8320051 47.016,27.808 C47.4960024,27.2959974 48.135996,27.04 48.936,27.04 C49.736004,27.04 50.2959984,27.2479979 50.616,27.664 C51.5120045,28.656005 51.5120045,29.6959946 50.616,30.784 C48.3119885,32.8960106 45.4880167,33.9440001 42.144,33.928 C38.7999833,33.9119999 36.0000113,32.7360117 33.744,30.4 C31.4879887,28.0639883 30.3440002,25.2480165 30.312,21.952 C30.3440002,18.6559835 31.4879887,15.8320118 33.744,13.48 C36.0000113,11.1279882 38.727984,9.952 41.928,9.952 C45.128016,9.952 47.823989,10.9999895 50.016,13.096 C52.208011,15.1920105 53.399999,17.8559838 53.592,21.088 L53.592,21.328 Z M42.024,14.512 C40.1679907,14.6080005 38.6800056,15.1839947 37.56,16.24 C36.4399944,17.2960053 35.7680011,18.4159941 35.544,19.6 L49.128,19.6 C48.8399986,18.4799944 48.0640063,17.3920053 46.8,16.336 C45.5359937,15.2799947 43.9440096,14.6720008 42.024,14.512 L42.024,14.512 Z M82.968,31.36 C82.968,32.0640035 82.7120026,32.6719974 82.2,33.184 C81.6879974,33.6960026 81.0960034,33.952 80.424,33.952 C79.7519966,33.952 79.1840023,33.752002 78.72,33.352 C78.2559977,32.951998 77.9600006,32.4640029 77.832,31.888 C75.8159899,33.2640069 73.6400117,33.952 71.304,33.952 C68.0719838,33.952 65.3200114,32.7760118 63.048,30.424 C60.7759886,28.0719882 59.64,25.2560164 59.64,21.976 C59.64,18.6959836 60.7759886,15.8720118 63.048,13.504 C65.3200114,11.1359882 68.0719838,9.952 71.304,9.952 C73.6720118,9.952 75.8159904,10.6239933 77.736,11.968 L77.736,2.944 C77.736,2.23999648 77.9919974,1.63200256 78.504,1.12 C79.0160026,0.60799744 79.6319964,0.352 80.352,0.352 C81.0720036,0.352 81.6879974,0.60799744 82.2,1.12 C82.7120026,1.63200256 82.968,2.23999648 82.968,2.944 L82.968,31.36 Z M75.84,26.728 C77.1040063,25.3999934 77.736,23.8160092 77.736,21.976 C77.736,20.1359908 77.1120062,18.5440067 75.864,17.2 C74.6159938,15.8559933 73.096009,15.184 71.304,15.184 C69.511991,15.184 67.9920062,15.8559933 66.744,17.2 C65.4959938,18.5440067 64.872,20.1359908 64.872,21.976 C64.872,23.8160092 65.5039937,25.3999934 66.768,26.728 C68.0320063,28.0560066 69.5439912,28.72 71.304,28.72 C73.0640088,28.72 74.5759937,28.0560066 75.84,26.728 L75.84,26.728 Z M114.504,21.328 C114.504,22.0320035 114.272002,22.5999978 113.808,23.032 C113.343998,23.4640022 112.728004,23.68 111.96,23.68 L96.696,23.68 C96.9840014,25.0560069 97.527996,26.1119963 98.328,26.848 C99.3520051,28.0320059 100.84799,28.7439988 102.816,28.984 C104.78401,29.2240012 106.487993,28.8320051 107.928,27.808 C108.408002,27.2959974 109.047996,27.04 109.848,27.04 C110.648004,27.04 111.207998,27.2479979 111.528,27.664 C112.424004,28.656005 112.424004,29.6959946 111.528,30.784 C109.223988,32.8960106 106.400017,33.9440001 103.056,33.928 C99.7119833,33.9119999 96.9120113,32.7360117 94.656,30.4 C92.3999887,28.0639883 91.2560002,25.2480165 91.224,21.952 C91.2560002,18.6559835 92.3999887,15.8320118 94.656,13.48 C96.9120113,11.1279882 99.639984,9.952 102.84,9.952 C106.040016,9.952 108.735989,10.9999895 110.928,13.096 C113.120011,15.1920105 114.311999,17.8559838 114.504,21.088 L114.504,21.328 Z M102.936,14.512 C101.079991,14.6080005 99.5920056,15.1839947 98.472,16.24 C97.3519944,17.2960053 96.6800011,18.4159941 96.456,19.6 L110.04,19.6 C109.751999,18.4799944 108.976006,17.3920053 107.712,16.336 C106.447994,15.2799947 104.85601,14.6720008 102.936,14.512 L102.936,14.512 Z M136.968,12.592 C137.544003,12.9760019 137.903999,13.5119966 138.048,14.2 C138.192001,14.8880034 138.088002,15.535997 137.736,16.144 C137.351998,16.7200029 136.816003,17.0799993 136.128,17.224 C135.439997,17.3680007 134.792003,17.2320021 134.184,16.816 C132.391991,15.6319941 130.912006,15.04 129.744,15.04 C128.575994,15.04 127.624004,15.3279971 126.888,15.904 C126.375997,16.2560018 126.12,16.5679986 126.12,16.84 C126.12,17.1120014 126.16,17.3119994 126.24,17.44 C126.32,17.5680006 126.487999,17.7119992 126.744,17.872 C127.448004,18.3520024 128.615992,18.7359986 130.248,19.024 L130.296,19.072 L130.344,19.072 C132.040008,19.3920016 133.591993,19.8719968 135,20.512 C136.408007,21.1520032 137.447997,22.0319944 138.12,23.152 C138.792003,24.2720056 139.128,25.3759946 139.128,26.464 C139.128,28.7040112 138.12001,30.5599926 136.104,32.032 C134.247991,33.3120064 132.168012,33.952 129.864,33.952 C126.887985,33.9199998 124.040014,32.8160109 121.32,30.64 C120.807997,30.2239979 120.512,29.6560036 120.432,28.936 C120.352,28.2159964 120.535998,27.6000026 120.984,27.088 C121.400002,26.5119971 121.975996,26.1920003 122.712,26.128 C123.448004,26.0639997 124.071997,26.2559978 124.584,26.704 C126.312009,28.1440072 128.071991,28.8480002 129.864,28.816 C131.080006,28.816 132.167995,28.512003 133.128,27.904 C133.704003,27.4239976 133.992,27.0160017 133.992,26.68 C133.992,26.3439983 133.944,26.1120006 133.848,25.984 C133.784,25.8239992 133.576002,25.6320011 133.224,25.408 C132.455996,24.8639973 131.176009,24.4160018 129.384,24.064 L129.336,24.064 C127.639992,23.7439984 126.160006,23.280003 124.896,22.672 C123.631994,22.063997 122.616004,21.1840058 121.848,20.032 C121.303997,19.1359955 121.032,18.1280056 121.032,17.008 C121.032,14.9279896 121.975991,13.1680072 123.864,11.728 C125.592009,10.5439941 127.567989,9.952 129.792,9.952 C132.016011,9.952 134.407987,10.8319912 136.968,12.592 L136.968,12.592 Z M153.864,9.952 C154.600004,9.952 155.231997,10.2079974 155.76,10.72 C156.288003,11.2320026 156.552,11.8479964 156.552,12.568 C156.552,13.2880036 156.288003,13.9119974 155.76,14.44 C155.231997,14.9680026 154.600004,15.232 153.864,15.232 L152.664,15.232 L152.664,28.624 C153.400004,28.624 154.023997,28.8879974 154.536,29.416 C155.048003,29.9440026 155.304,30.5759963 155.304,31.312 C155.304,32.0480037 155.048003,32.6719974 154.536,33.184 C154.023997,33.6960026 153.400004,33.952 152.664,33.952 C151.191993,33.952 149.936005,33.4320052 148.896,32.392 C147.855995,31.3519948 147.336,30.0960074 147.336,28.624 L147.336,15.232 L145.944,15.232 C145.207996,15.232 144.584003,14.9760026 144.072,14.464 C143.559997,13.9519974 143.304,13.3280037 143.304,12.592 C143.304,11.8559963 143.559997,11.2320026 144.072,10.72 C144.584003,10.2079974 145.207996,9.952 145.944,9.952 L147.336,9.952 L147.336,2.992 C147.336,2.25599632 147.599997,1.63200256 148.128,1.12 C148.656003,0.60799744 149.287996,0.352 150.024,0.352 C150.760004,0.352 151.383997,0.60799744 151.896,1.12 C152.408003,1.63200256 152.664,2.25599632 152.664,2.992 L152.664,9.952 L153.864,9.952 Z M165.696,30.448 C163.503989,28.1119883 162.408,25.2880166 162.408,21.976 C162.408,18.6639834 163.503989,15.8320118 165.696,13.48 C167.888011,11.1279882 170.599984,9.952 173.832,9.952 C176.104011,9.952 178.23199,10.655993 180.216,12.064 C180.376001,11.455997 180.679998,10.952002 181.128,10.552 C181.576002,10.151998 182.127997,9.952 182.784,9.952 C183.440003,9.952 184.015998,10.2079974 184.512,10.72 C185.008002,11.2320026 185.256,11.8399965 185.256,12.544 L185.256,31.408 C185.256,32.1120035 185.008002,32.7119975 184.512,33.208 C184.015998,33.7040025 183.440003,33.952 182.784,33.952 C182.127997,33.952 181.576002,33.7600019 181.128,33.376 C180.679998,32.9919981 180.376001,32.496003 180.216,31.888 C178.26399,33.2640069 176.136012,33.952 173.832,33.952 C170.599984,33.952 167.888011,32.7840117 165.696,30.448 L165.696,30.448 Z M169.296,26.848 C170.464006,28.1600066 171.967991,28.816 173.808,28.816 C175.648009,28.816 177.167994,28.1600066 178.368,26.848 C179.568006,25.5359934 180.168,23.9200096 180.168,22 C180.168,20.0799904 179.560006,18.4480067 178.344,17.104 C177.127994,15.7599933 175.616009,15.088 173.808,15.088 C171.999991,15.088 170.504006,15.7519934 169.32,17.08 C168.135994,18.4080066 167.544,20.0399903 167.544,21.976 C167.544,23.9120097 168.127994,25.5359934 169.296,26.848 L169.296,26.848 Z M195,2.992 C195,2.25599632 195.255997,1.63200256 195.768,1.12 C196.280003,0.60799744 196.903996,0.352 197.64,0.352 C198.376004,0.352 199.007997,0.60799744 199.536,1.12 C200.064003,1.63200256 200.328,2.25599632 200.328,2.992 L200.328,31.312 C200.328,32.0480037 200.064003,32.6719974 199.536,33.184 C199.007997,33.6960026 198.376004,33.952 197.64,33.952 C196.903996,33.952 196.280003,33.6960026 195.768,33.184 C195.255997,32.6719974 195,32.0480037 195,31.312 L195,2.992 Z" id="pedestal" fill="#FFFFFF" sketch:type="MSShapeGroup"></path>
    </g>
</svg>